<mxfile host="Electron" modified="2023-12-01T09:24:43.547Z" agent="Mozilla/5.0 (Windows NT 10.0; Win64; x64) AppleWebKit/537.36 (KHTML, like Gecko) draw.io/22.1.2 Chrome/114.0.5735.289 Electron/25.9.4 Safari/537.36" etag="StXY0YRy5ZSTnrGrZV0i" version="22.1.2" type="device">
  <diagram name="Page-1" id="1LWNldYLuu1BPSAyaGTF">
    <mxGraphModel dx="2245" dy="820" grid="1" gridSize="10" guides="1" tooltips="1" connect="1" arrows="1" fold="1" page="1" pageScale="1" pageWidth="827" pageHeight="1169" math="0" shadow="0">
      <root>
        <mxCell id="0" />
        <mxCell id="1" parent="0" />
        <mxCell id="f1-TlvaxnlV2KalP-GtQ-1" value="" style="rounded=1;whiteSpace=wrap;html=1;dashed=1;" parent="1" vertex="1">
          <mxGeometry x="310" y="270" width="480" height="190" as="geometry" />
        </mxCell>
        <mxCell id="f1-TlvaxnlV2KalP-GtQ-39" style="edgeStyle=orthogonalEdgeStyle;rounded=0;orthogonalLoop=1;jettySize=auto;html=1;" parent="1" source="f1-TlvaxnlV2KalP-GtQ-2" target="f1-TlvaxnlV2KalP-GtQ-36" edge="1">
          <mxGeometry relative="1" as="geometry" />
        </mxCell>
        <mxCell id="f1-TlvaxnlV2KalP-GtQ-40" value="Put Transformed Data" style="edgeLabel;html=1;align=center;verticalAlign=middle;resizable=0;points=[];" parent="f1-TlvaxnlV2KalP-GtQ-39" vertex="1" connectable="0">
          <mxGeometry x="0.082" y="2" relative="1" as="geometry">
            <mxPoint as="offset" />
          </mxGeometry>
        </mxCell>
        <mxCell id="f1-TlvaxnlV2KalP-GtQ-2" value="Glue Job" style="sketch=0;points=[[0,0,0],[0.25,0,0],[0.5,0,0],[0.75,0,0],[1,0,0],[0,1,0],[0.25,1,0],[0.5,1,0],[0.75,1,0],[1,1,0],[0,0.25,0],[0,0.5,0],[0,0.75,0],[1,0.25,0],[1,0.5,0],[1,0.75,0]];outlineConnect=0;fontColor=#232F3E;fillColor=#8C4FFF;strokeColor=#ffffff;dashed=0;verticalLabelPosition=bottom;verticalAlign=top;align=center;html=1;fontSize=12;fontStyle=0;aspect=fixed;shape=mxgraph.aws4.resourceIcon;resIcon=mxgraph.aws4.glue;" parent="1" vertex="1">
          <mxGeometry x="690" y="376" width="48" height="48" as="geometry" />
        </mxCell>
        <mxCell id="f1-TlvaxnlV2KalP-GtQ-11" style="edgeStyle=orthogonalEdgeStyle;rounded=0;orthogonalLoop=1;jettySize=auto;html=1;" parent="1" source="f1-TlvaxnlV2KalP-GtQ-7" target="f1-TlvaxnlV2KalP-GtQ-8" edge="1">
          <mxGeometry relative="1" as="geometry" />
        </mxCell>
        <mxCell id="f1-TlvaxnlV2KalP-GtQ-32" style="rounded=0;orthogonalLoop=1;jettySize=auto;html=1;" parent="1" source="f1-TlvaxnlV2KalP-GtQ-7" target="f1-TlvaxnlV2KalP-GtQ-26" edge="1">
          <mxGeometry relative="1" as="geometry" />
        </mxCell>
        <mxCell id="f1-TlvaxnlV2KalP-GtQ-35" value="Crawl Folder" style="edgeLabel;html=1;align=center;verticalAlign=middle;resizable=0;points=[];" parent="f1-TlvaxnlV2KalP-GtQ-32" vertex="1" connectable="0">
          <mxGeometry x="0.0465" y="1" relative="1" as="geometry">
            <mxPoint as="offset" />
          </mxGeometry>
        </mxCell>
        <mxCell id="f1-TlvaxnlV2KalP-GtQ-7" value="crawler" style="sketch=0;outlineConnect=0;fontColor=#232F3E;gradientColor=none;fillColor=#8C4FFF;strokeColor=none;dashed=0;verticalLabelPosition=bottom;verticalAlign=top;align=center;html=1;fontSize=12;fontStyle=0;aspect=fixed;pointerEvents=1;shape=mxgraph.aws4.glue_crawlers;" parent="1" vertex="1">
          <mxGeometry x="448" y="371" width="58" height="58" as="geometry" />
        </mxCell>
        <mxCell id="f1-TlvaxnlV2KalP-GtQ-8" value="On&lt;br&gt;Success" style="rhombus;whiteSpace=wrap;html=1;" parent="1" vertex="1">
          <mxGeometry x="550" y="360" width="80" height="80" as="geometry" />
        </mxCell>
        <mxCell id="f1-TlvaxnlV2KalP-GtQ-10" style="edgeStyle=orthogonalEdgeStyle;rounded=0;orthogonalLoop=1;jettySize=auto;html=1;" parent="1" source="f1-TlvaxnlV2KalP-GtQ-9" target="f1-TlvaxnlV2KalP-GtQ-7" edge="1">
          <mxGeometry relative="1" as="geometry" />
        </mxCell>
        <mxCell id="f1-TlvaxnlV2KalP-GtQ-9" value="Workflow Trigger" style="verticalLabelPosition=bottom;shadow=0;dashed=0;align=center;html=1;verticalAlign=top;shape=mxgraph.electrical.logic_gates.schmitt_trigger;" parent="1" vertex="1">
          <mxGeometry x="320" y="370" width="100" height="60" as="geometry" />
        </mxCell>
        <mxCell id="f1-TlvaxnlV2KalP-GtQ-16" style="edgeStyle=orthogonalEdgeStyle;rounded=0;orthogonalLoop=1;jettySize=auto;html=1;entryX=0;entryY=0.5;entryDx=0;entryDy=0;entryPerimeter=0;" parent="1" source="f1-TlvaxnlV2KalP-GtQ-8" target="f1-TlvaxnlV2KalP-GtQ-2" edge="1">
          <mxGeometry relative="1" as="geometry" />
        </mxCell>
        <mxCell id="f1-TlvaxnlV2KalP-GtQ-17" value="&lt;font style=&quot;font-size: 14px;&quot;&gt;AWS Glue Workflow&lt;/font&gt;" style="text;html=1;strokeColor=none;fillColor=none;align=center;verticalAlign=middle;whiteSpace=wrap;rounded=0;" parent="1" vertex="1">
          <mxGeometry x="460" y="280" width="170" height="30" as="geometry" />
        </mxCell>
        <mxCell id="f1-TlvaxnlV2KalP-GtQ-18" value="Ingestion" style="outlineConnect=0;dashed=0;verticalLabelPosition=bottom;verticalAlign=top;align=center;html=1;shape=mxgraph.aws3.lambda_function;fillColor=#F58534;gradientColor=none;" parent="1" vertex="1">
          <mxGeometry x="-215" y="360" width="69" height="72" as="geometry" />
        </mxCell>
        <mxCell id="f1-TlvaxnlV2KalP-GtQ-20" value="DataBucket/ZIP" style="sketch=0;outlineConnect=0;fontColor=#232F3E;gradientColor=none;fillColor=#7AA116;strokeColor=none;dashed=0;verticalLabelPosition=bottom;verticalAlign=top;align=center;html=1;fontSize=12;fontStyle=0;aspect=fixed;pointerEvents=1;shape=mxgraph.aws4.bucket;" parent="1" vertex="1">
          <mxGeometry x="-50" y="360" width="75" height="78" as="geometry" />
        </mxCell>
        <mxCell id="f1-TlvaxnlV2KalP-GtQ-21" style="edgeStyle=orthogonalEdgeStyle;rounded=0;orthogonalLoop=1;jettySize=auto;html=1;entryX=-0.053;entryY=0.462;entryDx=0;entryDy=0;entryPerimeter=0;" parent="1" source="f1-TlvaxnlV2KalP-GtQ-18" target="f1-TlvaxnlV2KalP-GtQ-20" edge="1">
          <mxGeometry relative="1" as="geometry" />
        </mxCell>
        <mxCell id="f1-TlvaxnlV2KalP-GtQ-22" value="PutObject" style="edgeLabel;html=1;align=center;verticalAlign=middle;resizable=0;points=[];" parent="f1-TlvaxnlV2KalP-GtQ-21" vertex="1" connectable="0">
          <mxGeometry x="-0.2992" y="1" relative="1" as="geometry">
            <mxPoint as="offset" />
          </mxGeometry>
        </mxCell>
        <mxCell id="f1-TlvaxnlV2KalP-GtQ-27" style="rounded=0;orthogonalLoop=1;jettySize=auto;html=1;" parent="1" source="f1-TlvaxnlV2KalP-GtQ-23" target="f1-TlvaxnlV2KalP-GtQ-26" edge="1">
          <mxGeometry relative="1" as="geometry" />
        </mxCell>
        <mxCell id="f1-TlvaxnlV2KalP-GtQ-28" value="PutObject" style="edgeLabel;html=1;align=center;verticalAlign=middle;resizable=0;points=[];" parent="f1-TlvaxnlV2KalP-GtQ-27" vertex="1" connectable="0">
          <mxGeometry x="0.0111" y="1" relative="1" as="geometry">
            <mxPoint as="offset" />
          </mxGeometry>
        </mxCell>
        <mxCell id="f1-TlvaxnlV2KalP-GtQ-23" value="Extraction" style="outlineConnect=0;dashed=0;verticalLabelPosition=bottom;verticalAlign=top;align=center;html=1;shape=mxgraph.aws3.lambda_function;fillColor=#F58534;gradientColor=none;" parent="1" vertex="1">
          <mxGeometry x="146" y="363" width="69" height="72" as="geometry" />
        </mxCell>
        <mxCell id="f1-TlvaxnlV2KalP-GtQ-24" style="edgeStyle=orthogonalEdgeStyle;rounded=0;orthogonalLoop=1;jettySize=auto;html=1;entryX=0;entryY=0.5;entryDx=0;entryDy=0;entryPerimeter=0;" parent="1" source="f1-TlvaxnlV2KalP-GtQ-20" target="f1-TlvaxnlV2KalP-GtQ-23" edge="1">
          <mxGeometry relative="1" as="geometry" />
        </mxCell>
        <mxCell id="f1-TlvaxnlV2KalP-GtQ-25" value="S3 Notification" style="edgeLabel;html=1;align=center;verticalAlign=middle;resizable=0;points=[];" parent="f1-TlvaxnlV2KalP-GtQ-24" vertex="1" connectable="0">
          <mxGeometry x="-0.3473" y="2" relative="1" as="geometry">
            <mxPoint as="offset" />
          </mxGeometry>
        </mxCell>
        <mxCell id="f1-TlvaxnlV2KalP-GtQ-26" value="DataBucket/RAW" style="sketch=0;outlineConnect=0;fontColor=#232F3E;gradientColor=none;fillColor=#7AA116;strokeColor=none;dashed=0;verticalLabelPosition=bottom;verticalAlign=top;align=center;html=1;fontSize=12;fontStyle=0;aspect=fixed;pointerEvents=1;shape=mxgraph.aws4.bucket;" parent="1" vertex="1">
          <mxGeometry x="300" y="546" width="75" height="78" as="geometry" />
        </mxCell>
        <mxCell id="f1-TlvaxnlV2KalP-GtQ-30" style="edgeStyle=orthogonalEdgeStyle;rounded=0;orthogonalLoop=1;jettySize=auto;html=1;entryX=0.2;entryY=0.483;entryDx=0;entryDy=0;entryPerimeter=0;" parent="1" source="f1-TlvaxnlV2KalP-GtQ-23" target="f1-TlvaxnlV2KalP-GtQ-9" edge="1">
          <mxGeometry relative="1" as="geometry" />
        </mxCell>
        <mxCell id="f1-TlvaxnlV2KalP-GtQ-31" value="StartTrigger" style="edgeLabel;html=1;align=center;verticalAlign=middle;resizable=0;points=[];" parent="f1-TlvaxnlV2KalP-GtQ-30" vertex="1" connectable="0">
          <mxGeometry x="0.184" relative="1" as="geometry">
            <mxPoint as="offset" />
          </mxGeometry>
        </mxCell>
        <mxCell id="f1-TlvaxnlV2KalP-GtQ-36" value="DataBucket" style="sketch=0;outlineConnect=0;fontColor=#232F3E;gradientColor=none;fillColor=#7AA116;strokeColor=none;dashed=0;verticalLabelPosition=bottom;verticalAlign=top;align=center;html=1;fontSize=12;fontStyle=0;aspect=fixed;pointerEvents=1;shape=mxgraph.aws4.bucket;" parent="1" vertex="1">
          <mxGeometry x="676.5" y="546" width="75" height="78" as="geometry" />
        </mxCell>
        <mxCell id="x5_iwoThCbl_X9q9-M0I-1" value="Ingestion" style="outlineConnect=0;dashed=0;verticalLabelPosition=bottom;verticalAlign=top;align=center;html=1;shape=mxgraph.aws3.lambda_function;fillColor=#F58534;gradientColor=none;" vertex="1" parent="1">
          <mxGeometry x="-215" y="820" width="69" height="72" as="geometry" />
        </mxCell>
        <mxCell id="x5_iwoThCbl_X9q9-M0I-2" value="DataBucket/ZIP" style="sketch=0;outlineConnect=0;fontColor=#232F3E;gradientColor=none;fillColor=#7AA116;strokeColor=none;dashed=0;verticalLabelPosition=bottom;verticalAlign=top;align=center;html=1;fontSize=12;fontStyle=0;aspect=fixed;pointerEvents=1;shape=mxgraph.aws4.bucket;" vertex="1" parent="1">
          <mxGeometry x="-50" y="820" width="75" height="78" as="geometry" />
        </mxCell>
        <mxCell id="x5_iwoThCbl_X9q9-M0I-3" style="edgeStyle=orthogonalEdgeStyle;rounded=0;orthogonalLoop=1;jettySize=auto;html=1;entryX=-0.053;entryY=0.462;entryDx=0;entryDy=0;entryPerimeter=0;" edge="1" parent="1" source="x5_iwoThCbl_X9q9-M0I-1" target="x5_iwoThCbl_X9q9-M0I-2">
          <mxGeometry relative="1" as="geometry" />
        </mxCell>
        <mxCell id="x5_iwoThCbl_X9q9-M0I-4" value="PutObject" style="edgeLabel;html=1;align=center;verticalAlign=middle;resizable=0;points=[];" vertex="1" connectable="0" parent="x5_iwoThCbl_X9q9-M0I-3">
          <mxGeometry x="-0.2992" y="1" relative="1" as="geometry">
            <mxPoint as="offset" />
          </mxGeometry>
        </mxCell>
        <mxCell id="x5_iwoThCbl_X9q9-M0I-9" style="edgeStyle=orthogonalEdgeStyle;rounded=0;orthogonalLoop=1;jettySize=auto;html=1;" edge="1" parent="1" source="x5_iwoThCbl_X9q9-M0I-5" target="x5_iwoThCbl_X9q9-M0I-8">
          <mxGeometry relative="1" as="geometry" />
        </mxCell>
        <mxCell id="x5_iwoThCbl_X9q9-M0I-10" value="PutObject" style="edgeLabel;html=1;align=center;verticalAlign=middle;resizable=0;points=[];" vertex="1" connectable="0" parent="x5_iwoThCbl_X9q9-M0I-9">
          <mxGeometry x="-0.132" y="-1" relative="1" as="geometry">
            <mxPoint as="offset" />
          </mxGeometry>
        </mxCell>
        <mxCell id="x5_iwoThCbl_X9q9-M0I-5" value="Extraction" style="outlineConnect=0;dashed=0;verticalLabelPosition=bottom;verticalAlign=top;align=center;html=1;shape=mxgraph.aws3.lambda_function;fillColor=#F58534;gradientColor=none;" vertex="1" parent="1">
          <mxGeometry x="146" y="823" width="69" height="72" as="geometry" />
        </mxCell>
        <mxCell id="x5_iwoThCbl_X9q9-M0I-6" style="edgeStyle=orthogonalEdgeStyle;rounded=0;orthogonalLoop=1;jettySize=auto;html=1;entryX=0;entryY=0.5;entryDx=0;entryDy=0;entryPerimeter=0;" edge="1" parent="1" source="x5_iwoThCbl_X9q9-M0I-2" target="x5_iwoThCbl_X9q9-M0I-5">
          <mxGeometry relative="1" as="geometry" />
        </mxCell>
        <mxCell id="x5_iwoThCbl_X9q9-M0I-7" value="S3 Notification" style="edgeLabel;html=1;align=center;verticalAlign=middle;resizable=0;points=[];" vertex="1" connectable="0" parent="x5_iwoThCbl_X9q9-M0I-6">
          <mxGeometry x="-0.3473" y="2" relative="1" as="geometry">
            <mxPoint as="offset" />
          </mxGeometry>
        </mxCell>
        <mxCell id="x5_iwoThCbl_X9q9-M0I-8" value="DataBucket/RAW" style="sketch=0;outlineConnect=0;fontColor=#232F3E;gradientColor=none;fillColor=#7AA116;strokeColor=none;dashed=0;verticalLabelPosition=bottom;verticalAlign=top;align=center;html=1;fontSize=12;fontStyle=0;aspect=fixed;pointerEvents=1;shape=mxgraph.aws4.bucket;" vertex="1" parent="1">
          <mxGeometry x="332.5" y="820" width="75" height="78" as="geometry" />
        </mxCell>
        <mxCell id="x5_iwoThCbl_X9q9-M0I-16" style="edgeStyle=orthogonalEdgeStyle;rounded=0;orthogonalLoop=1;jettySize=auto;html=1;" edge="1" parent="1" source="x5_iwoThCbl_X9q9-M0I-12" target="x5_iwoThCbl_X9q9-M0I-15">
          <mxGeometry relative="1" as="geometry" />
        </mxCell>
        <mxCell id="x5_iwoThCbl_X9q9-M0I-17" value="PutObject" style="edgeLabel;html=1;align=center;verticalAlign=middle;resizable=0;points=[];" vertex="1" connectable="0" parent="x5_iwoThCbl_X9q9-M0I-16">
          <mxGeometry x="-0.5355" y="-2" relative="1" as="geometry">
            <mxPoint x="1" as="offset" />
          </mxGeometry>
        </mxCell>
        <mxCell id="x5_iwoThCbl_X9q9-M0I-12" value="Transformation" style="outlineConnect=0;dashed=0;verticalLabelPosition=bottom;verticalAlign=top;align=center;html=1;shape=mxgraph.aws3.lambda_function;fillColor=#F58534;gradientColor=none;" vertex="1" parent="1">
          <mxGeometry x="555.5" y="823" width="69" height="72" as="geometry" />
        </mxCell>
        <mxCell id="x5_iwoThCbl_X9q9-M0I-13" style="edgeStyle=orthogonalEdgeStyle;rounded=0;orthogonalLoop=1;jettySize=auto;html=1;entryX=0;entryY=0.5;entryDx=0;entryDy=0;entryPerimeter=0;" edge="1" parent="1" source="x5_iwoThCbl_X9q9-M0I-8" target="x5_iwoThCbl_X9q9-M0I-12">
          <mxGeometry relative="1" as="geometry" />
        </mxCell>
        <mxCell id="x5_iwoThCbl_X9q9-M0I-14" value="S3 Notification" style="edgeLabel;html=1;align=center;verticalAlign=middle;resizable=0;points=[];" vertex="1" connectable="0" parent="x5_iwoThCbl_X9q9-M0I-13">
          <mxGeometry x="-0.1148" y="-1" relative="1" as="geometry">
            <mxPoint as="offset" />
          </mxGeometry>
        </mxCell>
        <mxCell id="x5_iwoThCbl_X9q9-M0I-15" value="DataBucket/PARQUET" style="sketch=0;outlineConnect=0;fontColor=#232F3E;gradientColor=none;fillColor=#7AA116;strokeColor=none;dashed=0;verticalLabelPosition=bottom;verticalAlign=top;align=center;html=1;fontSize=12;fontStyle=0;aspect=fixed;pointerEvents=1;shape=mxgraph.aws4.bucket;" vertex="1" parent="1">
          <mxGeometry x="727.5" y="820" width="75" height="78" as="geometry" />
        </mxCell>
        <mxCell id="x5_iwoThCbl_X9q9-M0I-18" value="&lt;font style=&quot;font-size: 30px;&quot;&gt;Solution 1&lt;/font&gt;" style="text;html=1;align=center;verticalAlign=middle;resizable=0;points=[];autosize=1;strokeColor=none;fillColor=none;" vertex="1" parent="1">
          <mxGeometry x="-215" y="260" width="160" height="50" as="geometry" />
        </mxCell>
        <mxCell id="x5_iwoThCbl_X9q9-M0I-19" value="&lt;font style=&quot;font-size: 30px;&quot;&gt;Solution 2&lt;/font&gt;" style="text;html=1;align=center;verticalAlign=middle;resizable=0;points=[];autosize=1;strokeColor=none;fillColor=none;" vertex="1" parent="1">
          <mxGeometry x="-215" y="750" width="160" height="50" as="geometry" />
        </mxCell>
      </root>
    </mxGraphModel>
  </diagram>
</mxfile>
